<svg width="12" height="12" viewBox="0 0 12 12" fill="none" xmlns="http://www.w3.org/2000/svg">
<g clip-path="url(#clip0_652_3403)">
<path d="M6 11.625C9.1066 11.625 11.625 9.1066 11.625 6C11.625 2.8934 9.1066 0.375 6 0.375C2.8934 0.375 0.375 2.8934 0.375 6C0.375 9.1066 2.8934 11.625 6 11.625Z" fill="#006C35"/>
<path d="M5.94385 5.00625C5.9251 4.8375 6.01885 4.66875 6.1876 4.70625C6.31885 4.725 6.46885 4.85625 6.39385 4.9875C6.28135 5.19375 5.98135 5.19375 5.79385 5.30625C5.8126 5.41875 6.35635 5.2875 6.4501 5.2875C6.54385 5.2875 6.6376 5.325 6.58135 5.4375C6.5251 5.55 6.3376 5.55 6.2251 5.56875C6.1126 5.5875 5.9251 5.5875 5.86885 5.68125C5.75635 5.83125 5.98135 5.85 6.05635 5.8875C6.24385 5.98125 5.94385 6.075 5.86885 6.05625C5.5876 6 5.53135 5.85 5.3626 5.6625C5.19385 5.8875 4.66885 6.39375 4.55635 5.86875C4.36885 5.94375 4.18135 6.0375 3.9751 6.05625C4.06885 5.925 4.25635 5.86875 4.40635 5.79375C4.59385 5.7 4.59385 5.53125 4.70635 5.38125C4.74385 5.4375 4.70635 5.5125 4.7251 5.5875C4.8751 5.5125 5.0626 5.3625 4.9876 5.175C4.9876 5.15625 4.7626 4.70625 4.9501 4.78125C5.11885 4.85625 5.0626 5.025 5.1001 5.15625C5.15635 5.4 5.04385 5.53125 4.85635 5.68125C4.78135 5.7375 4.5751 5.9625 4.81885 5.9625C4.9876 5.9625 5.1376 5.775 5.23135 5.6625C5.34385 5.5125 5.30635 5.3625 5.23135 5.19375C5.1751 5.0625 5.04385 4.78125 5.2126 4.6875C5.34385 4.89375 5.4001 5.1375 5.45635 5.38125C5.49385 5.5875 5.53135 5.79375 5.75635 5.85C5.7376 5.7 5.83135 5.5875 5.9626 5.53125C5.86885 5.45625 5.34385 5.55 5.5501 5.26875C5.56885 5.1375 5.94385 5.08125 5.94385 5.00625Z" fill="white"/>
<path d="M3.07536 5.69999C3.16911 5.96249 3.48786 5.86874 3.67536 5.79374C3.97536 5.64374 3.97536 5.41874 3.97536 5.11874C3.86286 5.17499 3.88161 5.38124 3.84411 5.47499C3.76911 5.62499 3.52536 5.75624 3.35661 5.73749C3.11286 5.69999 3.00036 5.28749 3.18786 5.13749C3.22536 5.26874 3.13161 5.54999 3.35661 5.56874C3.52536 5.58749 3.86286 5.38124 3.80661 5.19374C3.58161 5.26874 3.45036 5.19374 3.52536 4.94999C3.58161 4.72499 3.80661 4.89374 3.90036 5.00624C4.25661 4.79999 3.61911 4.01249 3.99411 3.80624C4.06911 3.93749 4.18161 4.10624 4.08786 4.23749C3.97536 4.38749 4.08786 4.70624 4.10661 4.87499C4.29411 4.70624 4.14411 5.00624 4.29411 5.02499C4.38786 5.04374 4.42536 4.79999 4.48161 4.79999C4.50036 4.85624 4.50036 5.02499 4.59411 5.00624C4.70661 4.96874 4.57536 4.81874 4.68786 4.78124C4.72536 4.87499 4.70661 5.15624 4.57536 5.13749C4.46286 5.11874 4.48161 5.04374 4.35036 5.11874C4.23786 5.17499 4.20036 5.11874 4.12536 5.06249C4.10661 5.28749 4.18161 5.53124 4.05036 5.73749C3.93786 5.90624 3.71286 5.99999 3.52536 6.03749C3.03786 6.13124 2.90661 5.64374 3.07536 5.24999C3.11286 5.36249 3.03786 5.56874 3.07536 5.69999ZM7.65036 5.79374C7.74411 6.03749 7.93161 5.53124 7.98786 5.45624C8.13786 5.23124 8.36286 5.81249 8.45661 5.43749C8.51286 5.19374 8.43786 4.94999 8.41911 4.70624C8.40036 4.53749 8.34411 4.38749 8.23161 4.25624C8.11911 4.10624 8.00661 3.97499 8.06286 3.78749C8.25036 3.86249 8.25036 4.01249 8.34411 4.16249C8.36286 4.04999 8.28786 3.89999 8.36286 3.80624C8.45661 3.67499 8.53161 4.03124 8.53161 4.06874C8.55036 4.16249 8.45661 4.19999 8.51286 4.34999C8.55036 4.46249 8.62536 4.57499 8.70036 4.66874C8.68161 4.55624 8.51286 3.78749 8.70036 3.78749C8.75661 3.78749 8.81286 4.01249 8.81286 4.04999C8.85036 4.16249 8.77536 4.25624 8.77536 4.38749C8.75661 4.61249 8.79411 4.87499 8.94411 5.04374C9.01911 5.13749 9.30036 5.47499 9.15036 5.58749C9.03786 5.45624 8.96286 5.30624 8.86911 5.17499C8.86911 5.32499 8.90661 5.49374 8.83161 5.60624C8.75661 5.56874 8.79411 5.32499 8.79411 5.26874C8.79411 5.06249 8.66286 4.89374 8.55036 4.72499C8.51286 5.00624 8.73786 5.53124 8.47536 5.73749C8.30661 5.88749 8.08161 5.54999 8.02536 5.68124C7.96911 5.77499 7.83786 6.11249 7.68786 6.07499C7.50036 6.03749 7.36911 5.51249 7.57536 5.45624C7.59411 5.54999 7.59411 5.68124 7.65036 5.79374Z" fill="white"/>
<path d="M3.63766 4.51874C3.76891 4.53749 3.63766 4.08749 3.63766 4.01249C3.65641 3.93749 3.71266 3.89999 3.75016 3.97499C3.80641 4.08749 3.80641 4.21874 3.82516 4.33124C3.82516 4.42499 3.84391 4.53749 3.76891 4.61249C3.65641 4.72499 3.50641 4.66874 3.45016 4.51874C3.18766 4.74374 3.52516 5.13749 3.30016 5.36249C3.26266 5.15624 3.30016 4.93124 3.22516 4.74374C3.18766 4.64999 3.01891 4.68749 3.00016 4.51874C3.00016 4.44374 3.05641 4.23749 2.98141 4.18124C2.94391 4.25624 2.90641 4.83749 2.71891 4.66874C2.56891 4.55624 2.60641 4.18124 2.66266 4.03124C2.77516 4.08749 2.64391 4.49999 2.79391 4.51874C2.86891 4.53749 2.88766 4.21874 2.90641 4.16249C2.96266 4.06874 3.15016 3.80624 3.11266 4.06874C3.09391 4.18124 3.00016 4.53749 3.22516 4.51874C3.20641 4.33124 3.18766 4.14374 3.15016 3.95624C3.13141 3.86249 3.18766 3.67499 3.26266 3.84374C3.31891 3.95624 3.28141 4.01249 3.26266 4.12499C3.24391 4.25624 3.30016 4.38749 3.31891 4.49999C3.43141 4.40624 3.28141 4.04999 3.37516 3.89999C3.60016 4.03124 3.35641 4.48124 3.63766 4.51874ZM6.05641 4.55624C5.96266 4.68749 5.79391 4.57499 5.71891 4.48124C5.62516 4.59374 5.43766 4.78124 5.28766 4.63124C5.17516 4.51874 5.30641 4.31249 5.21266 4.21874C5.15641 4.31249 5.06266 4.76249 4.89391 4.55624C4.80016 4.44374 4.66891 4.04999 4.87516 3.95624C4.85641 4.10624 4.81891 4.27499 4.91266 4.40624C5.00641 4.53749 5.10016 4.19999 5.13766 4.12499C5.19391 3.99374 5.38141 3.76874 5.34391 4.04999C5.32516 4.16249 5.28766 4.42499 5.40016 4.49999C5.47516 4.55624 5.56891 4.46249 5.60641 4.40624C5.68141 4.31249 5.64391 4.16249 5.62516 4.04999C5.60641 3.95624 5.56891 3.84374 5.62516 3.74999C5.70016 3.63749 5.75641 3.89999 5.75641 3.95624C5.75641 4.01249 5.83141 4.59374 5.96266 4.40624C6.09391 4.23749 5.73766 3.86249 5.98141 3.76874C6.07516 3.73124 6.24391 4.10624 6.05641 3.99374C6.11266 4.16249 6.18766 4.40624 6.05641 4.55624ZM6.76891 4.78124C6.78766 5.02499 6.99391 5.69999 6.71266 5.84999C6.67516 5.77499 6.71266 5.66249 6.73141 5.56874C6.75016 5.39999 6.71266 5.23124 6.69391 5.08124C6.65641 4.72499 6.61891 4.46249 6.37516 4.18124C6.31891 4.10624 6.22516 4.04999 6.20641 3.93749C6.20641 3.89999 6.18766 3.73124 6.26266 3.76874C6.31891 3.78749 6.63766 4.06874 6.46891 4.06874C6.48766 4.10624 6.56266 4.25624 6.60016 4.25624C6.60016 4.16249 6.48766 3.88124 6.60016 3.82499C6.69391 3.76874 6.80641 4.12499 6.76891 4.19999C6.73141 4.29374 6.73141 4.34999 6.76891 4.48124C6.80641 4.63124 6.90016 4.76249 6.97516 4.89374C7.08766 5.08124 7.31266 5.34374 7.25641 5.58749C7.14391 5.53124 7.06891 5.26874 7.01266 5.15624C6.97516 5.06249 6.93766 4.96874 6.88141 4.89374C6.86266 4.87499 6.75016 4.72499 6.76891 4.81874V4.78124ZM9.37516 5.13749C9.39391 5.53124 9.26266 6.03749 8.77516 6.03749C8.77516 5.92499 9.01891 5.81249 9.09391 5.75624C9.28141 5.60624 9.26266 5.32499 9.24391 5.11874C9.22516 4.83749 9.20641 4.55624 9.15016 4.27499C9.13141 4.10624 9.03766 3.86249 9.18766 3.74999C9.28141 3.82499 9.41266 4.03124 9.35641 4.10624C9.26266 4.21874 9.35641 5.06249 9.37516 5.13749Z" fill="white"/>
<path d="M6.97539 5.98122C7.46289 5.69997 7.31289 5.09997 7.27539 4.63122C7.25664 4.49997 7.25664 4.36872 7.23789 4.23747C7.23789 4.14372 7.16289 4.01247 7.20039 3.91872C7.29414 3.67497 7.36914 3.89997 7.38789 4.04997C7.40664 4.14372 7.33164 4.16247 7.35039 4.23747C7.36914 4.38747 7.36914 4.53747 7.38789 4.68747C7.40664 4.93122 7.44414 5.17497 7.42539 5.39997C7.38789 5.75622 7.20039 6.14997 6.76914 6.07497C6.78789 6.03747 6.91914 6.01872 6.97539 5.98122ZM7.76289 5.04372C7.78164 5.23122 7.85664 5.56872 7.76289 5.73747C7.68789 5.84997 7.68789 5.66247 7.66914 5.64372C7.65039 5.49372 7.65039 5.34372 7.65039 5.17497C7.61289 4.76247 7.48164 4.34997 7.48164 3.95622C7.48164 3.44997 7.91289 4.23747 7.66914 4.19997C7.68789 4.48122 7.72539 4.76247 7.76289 5.04372ZM4.70664 4.08747C4.74414 4.18122 4.27539 4.42497 4.21914 4.42497C4.20039 4.33122 4.42539 4.19997 4.48164 4.16247C4.53789 4.10622 4.57539 4.10622 4.55664 4.03122C4.51914 3.95622 4.53789 3.82497 4.63164 3.78747C4.81914 3.73122 4.68789 4.01247 4.70664 4.08747ZM2.77539 5.75622C2.77539 5.90622 2.83164 5.83122 2.90664 5.79372C2.94414 5.86872 2.85039 6.07497 2.75664 5.98122C2.62539 5.84997 2.73789 5.54997 2.79414 5.41872C2.83164 5.51247 2.75664 5.66247 2.77539 5.75622ZM8.06289 4.59372C8.08164 4.51872 8.02539 4.44372 8.08164 4.36872C8.15664 4.27497 8.23164 4.38747 8.19414 4.42497C8.15664 4.46247 8.10039 4.38747 8.10039 4.49997C8.10039 4.55622 8.13789 4.66872 8.08164 4.72497C8.04414 4.70622 7.87539 4.46247 7.89414 4.42497C7.96914 4.34997 8.04414 4.57497 8.06289 4.59372ZM3.16914 4.91247C3.13164 4.98747 2.70039 5.23122 2.68164 5.17497C2.68164 5.11872 3.22539 4.79997 3.16914 4.91247ZM6.35664 5.86872C6.30039 6.03747 6.54414 5.88747 6.60039 5.86872C6.52539 5.99997 6.26289 6.11247 6.30039 5.86872C6.28164 5.86872 6.24414 5.88747 6.22539 5.88747C6.18789 5.84997 6.41289 5.69997 6.35664 5.86872ZM8.40039 5.81247C8.45664 5.81247 8.55039 5.98122 8.49414 6.01872C8.45664 6.05622 8.28789 6.07497 8.38164 5.99997C8.49414 5.88747 8.40039 5.81247 8.40039 5.81247ZM5.75664 4.85622C5.77539 4.81872 5.77539 4.76247 5.79414 4.72497C5.98164 4.87497 5.49414 5.11872 5.58789 4.76247C5.62539 4.79997 5.62539 4.85622 5.66289 4.87497C5.66289 4.83747 5.68164 4.78122 5.68164 4.74372C5.71914 4.78122 5.71914 4.83747 5.75664 4.85622ZM7.95039 5.09997C7.89414 5.02497 8.23164 4.81872 8.28789 4.78122C8.32539 4.83747 8.06289 5.04372 7.95039 5.09997ZM9.00039 4.34997C8.96289 4.23747 8.85039 4.01247 8.96289 3.91872C9.03789 3.97497 9.07539 4.25622 9.00039 4.34997ZM6.95664 3.97497C6.93789 3.93747 6.88164 3.89997 6.88164 3.84372C6.90039 3.76872 6.93789 3.78747 6.97539 3.82497C7.03164 3.89997 7.06914 4.10622 6.97539 4.16247C6.97539 4.10622 6.99414 4.03122 6.95664 3.97497ZM4.66914 4.48122C4.66914 4.59372 4.48164 4.70622 4.46289 4.55622C4.44414 4.49997 4.53789 4.29372 4.57539 4.34997C4.50039 4.51872 4.50039 4.57497 4.66914 4.48122Z" fill="white"/>
<path d="M7.0127 4.27498C7.0877 4.46248 7.0502 4.29373 7.1252 4.25623C7.25645 4.49998 6.84395 4.44373 6.9377 4.29373C6.95645 4.31248 6.9752 4.34998 6.9752 4.36873C6.99395 4.34998 6.99395 4.31248 7.0127 4.27498ZM8.2127 5.13748C8.11895 5.06248 8.23145 4.96873 8.2877 5.06248C8.3252 5.11873 8.3252 5.26873 8.2502 5.30623C8.2502 5.24998 8.26895 5.17498 8.2127 5.13748ZM4.36895 5.54998C4.36895 5.51248 4.3502 5.23123 4.40645 5.26873C4.48145 5.30623 4.4627 5.51248 4.36895 5.54998ZM3.58145 3.78748C3.6002 3.84373 3.61895 3.91873 3.65645 3.82498C3.80645 3.99373 3.28145 3.93748 3.46895 3.76873C3.46895 3.78748 3.50645 3.89998 3.58145 3.78748ZM5.49395 4.19998C5.49395 4.12498 5.38145 3.80623 5.4752 3.80623C5.5877 3.82498 5.56895 4.10623 5.49395 4.19998ZM2.86895 4.03123C2.8127 4.01248 2.90645 3.91873 2.86895 3.84373C2.83145 3.86248 2.79395 3.80623 2.83145 3.76873C2.98145 3.65623 2.9252 4.03123 2.86895 4.03123ZM7.7252 7.83748L7.6502 7.61248L7.5752 7.83748H3.46895C3.46895 7.83748 3.50645 8.17498 3.91895 8.17498H7.55645V8.43748H8.5502V7.83748H7.7252ZM8.3627 8.28749H7.6877V8.09999H8.3627V8.28749Z" fill="white"/>
</g>
<defs>
<clipPath id="clip0_652_3403">
<rect width="12" height="12" fill="white"/>
</clipPath>
</defs>
</svg>
