<svg width="23" height="15" viewBox="0 0 23 15" fill="none" xmlns="http://www.w3.org/2000/svg">
<g clip-path="url(#clip0_2445_22634)">
<mask id="mask0_2445_22634" style="mask-type:alpha" maskUnits="userSpaceOnUse" x="0" y="0" width="23" height="15">
<path d="M0 0H23V15H0V0Z" fill="white"/>
</mask>
<g mask="url(#mask0_2445_22634)">
<path fill-rule="evenodd" clip-rule="evenodd" d="M0 0V15H23V0H0Z" fill="#2E42A5"/>
<mask id="mask1_2445_22634" style="mask-type:alpha" maskUnits="userSpaceOnUse" x="0" y="0" width="23" height="15">
<path fill-rule="evenodd" clip-rule="evenodd" d="M0 0V15H23V0H0Z" fill="white"/>
</mask>
<g mask="url(#mask1_2445_22634)">
<mask id="mask2_2445_22634" style="mask-type:alpha" maskUnits="userSpaceOnUse" x="0" y="0" width="23" height="15">
<path d="M0 0H23V15H0V0Z" fill="white"/>
</mask>
<g mask="url(#mask2_2445_22634)">
<path d="M-2.56104 13.9281L2.5004 15.79L23.1142 2.02374L25.7843 -0.742505L20.3721 -1.36438L11.9642 4.56749L5.19643 8.56499L-2.56104 13.9281Z" fill="white"/>
<path d="M-1.86914 15.2325L0.710453 16.3125L24.8252 -0.99939H21.2049L-1.86842 15.2319L-1.86914 15.2325Z" fill="#F50100"/>
<path d="M25.5607 13.9281L20.4992 15.79L-0.114512 2.02374L-2.78467 -0.742505L2.62752 -1.36438L11.0355 4.56749L17.8032 8.56499L25.5607 13.9281Z" fill="white"/>
<path d="M25.3882 14.8643L22.8093 15.9443L12.5412 8.53185L9.4966 7.70434L-3.04199 -0.733154H0.57907L13.1098 7.50434L16.4383 8.49685L25.3882 14.8643Z" fill="#F50100"/>
<mask id="mask3_2445_22634" style="mask-type:alpha" maskUnits="userSpaceOnUse" x="-2" y="-2" width="27" height="19">
<path fill-rule="evenodd" clip-rule="evenodd" d="M14.2153 -1.25H8.78446V5H-1.41748V10H8.78446V16.25H14.2153V10H24.4575V5H14.2153V-1.25Z" fill="white"/>
</mask>
<g mask="url(#mask3_2445_22634)">
<path fill-rule="evenodd" clip-rule="evenodd" d="M14.2153 -1.25H8.78446V5H-1.41748V10H8.78446V16.25H14.2153V10H24.4575V5H14.2153V-1.25Z" fill="#F50100"/>
<path d="M8.78446 -1.25V-2.5H7.34696V-1.25H8.78446ZM14.2153 -1.25H15.6528V-2.5H14.2153V-1.25ZM8.78446 5V6.25H10.222V5H8.78446ZM-1.41748 5V3.75H-2.85498V5H-1.41748ZM-1.41748 10H-2.85498V11.25H-1.41748V10ZM8.78446 10H10.222V8.75H8.78446V10ZM8.78446 16.25H7.34696V17.5H8.78446V16.25ZM14.2153 16.25V17.5H15.6528V16.25H14.2153ZM14.2153 10V8.75H12.7778V10H14.2153ZM24.4575 10V11.25H25.895V10H24.4575ZM24.4575 5H25.895V3.75H24.4575V5ZM14.2153 5H12.7778V6.25H14.2153V5ZM8.78446 -4.76837e-07H14.2153V-2.5H8.78446V-4.76837e-07ZM10.222 5V-1.25H7.34696V5H10.222ZM-1.41748 6.25H8.78446V3.75H-1.41748V6.25ZM0.0200195 10V5H-2.85498V10H0.0200195ZM8.78446 8.75H-1.41748V11.25H8.78446V8.75ZM10.222 16.25V10H7.34696V16.25H10.222ZM14.2153 15H8.78446V17.5H14.2153V15ZM12.7778 10V16.25H15.6528V10H12.7778ZM24.4575 8.75H14.2153V11.25H24.4575V8.75ZM23.02 5V10H25.895V5H23.02ZM14.2153 6.25H24.4575V3.75H14.2153V6.25ZM12.7778 -1.25V5H15.6528V-1.25H12.7778Z" fill="white"/>
</g>
</g>
</g>
</g>
</g>
<defs>
<clipPath id="clip0_2445_22634">
<rect width="23" height="15" fill="white"/>
</clipPath>
</defs>
</svg>
