<svg width="28" height="28" viewBox="0 0 28 28" fill="none" xmlns="http://www.w3.org/2000/svg">
<circle cx="14" cy="14" r="14" fill="#51CBFF"/>
<path fill-rule="evenodd" clip-rule="evenodd" d="M9.39941 18.8655C9.63007 19.1751 9.88779 19.4657 10.1704 19.7336C11.1194 20.633 12.3086 21.2381 13.5942 21.4758C14.8798 21.7135 16.2068 21.5735 17.4145 21.0729C18.6223 20.5722 19.6591 19.7322 20.3995 18.6547C21.1398 17.5771 21.5521 16.3081 21.5864 15.0011C21.6206 13.6941 21.2754 12.4052 20.5925 11.2903C19.9096 10.1755 18.9182 9.28237 17.7384 8.7191C17.0646 8.39746 16.3459 8.19125 15.6119 8.10516L16.189 10.2588C16.4238 10.329 16.6537 10.4175 16.8767 10.524C17.7078 10.9207 18.406 11.5498 18.887 12.335C19.368 13.1203 19.6112 14.0281 19.5871 14.9487C19.5629 15.8692 19.2725 16.7631 18.7511 17.5221C18.2296 18.2811 17.4993 18.8727 16.6486 19.2253C15.798 19.578 14.8633 19.6765 13.9578 19.5091C13.0553 19.3423 12.2203 18.9184 11.5531 18.2885L9.39941 18.8655Z" fill="white"/>
<path d="M9.81034 8.28999C10.4033 7.83504 11.0541 7.46386 11.7444 7.18557C12.1557 7.01971 12.3614 6.93678 12.5629 7.0373C12.7643 7.13783 12.8266 7.37013 12.951 7.83473L14.5649 13.8576C14.6869 14.3129 14.7479 14.5406 14.6443 14.7199C14.5408 14.8993 14.3131 14.9603 13.8577 15.0823L7.83492 16.6961C7.37031 16.8206 7.13801 16.8829 6.95024 16.7587C6.76247 16.6345 6.73144 16.4149 6.66938 15.9757C6.56525 15.2387 6.56128 14.4895 6.65883 13.7486C6.79999 12.6763 7.15096 11.6424 7.6917 10.7058C8.23244 9.76926 8.95235 8.94835 9.81034 8.28999Z" stroke="white" stroke-width="2"/>
</svg>
