<svg width="12" height="12" viewBox="0 0 12 12" fill="none" xmlns="http://www.w3.org/2000/svg">
<g clip-path="url(#clip0_652_3453)">
<path d="M5.9623 0.375C3.5248 0.375 1.44355 1.95 0.674805 4.125H11.2873C10.4998 1.95 8.41855 0.375 5.9623 0.375Z" fill="#F2B200"/>
<path d="M5.9623 11.625C8.41855 11.625 10.4998 10.0687 11.2686 7.875H0.674805C1.44355 10.0687 3.5248 11.625 5.9623 11.625Z" fill="#83BF4F"/>
<path d="M0.675195 4.125C0.468945 4.70625 0.356445 5.34375 0.356445 6C0.356445 6.65625 0.468945 7.29375 0.675195 7.875H11.2877C11.4939 7.29375 11.6064 6.65625 11.6064 6C11.6064 5.34375 11.4939 4.70625 11.2877 4.125H0.675195Z" fill="white"/>
<path d="M5.9624 7.5C6.79083 7.5 7.4624 6.82843 7.4624 6C7.4624 5.17157 6.79083 4.5 5.9624 4.5C5.13398 4.5 4.4624 5.17157 4.4624 6C4.4624 6.82843 5.13398 7.5 5.9624 7.5Z" fill="#428BC1"/>
<path d="M5.9624 7.3125C6.68728 7.3125 7.2749 6.72487 7.2749 6C7.2749 5.27513 6.68728 4.6875 5.9624 4.6875C5.23753 4.6875 4.6499 5.27513 4.6499 6C4.6499 6.72487 5.23753 7.3125 5.9624 7.3125Z" fill="white"/>
<path d="M5.4751 4.875C5.52687 4.875 5.56885 4.83303 5.56885 4.78125C5.56885 4.72947 5.52687 4.6875 5.4751 4.6875C5.42332 4.6875 5.38135 4.72947 5.38135 4.78125C5.38135 4.83303 5.42332 4.875 5.4751 4.875Z" fill="#428BC1"/>
<path d="M5.17529 5.04373C5.22707 5.04373 5.26904 5.00176 5.26904 4.94998C5.26904 4.8982 5.22707 4.85623 5.17529 4.85623C5.12352 4.85623 5.08154 4.8982 5.08154 4.94998C5.08154 5.00176 5.12352 5.04373 5.17529 5.04373Z" fill="#428BC1"/>
<path d="M4.93164 5.28751C4.98342 5.28751 5.02539 5.24553 5.02539 5.19376C5.02539 5.14198 4.98342 5.10001 4.93164 5.10001C4.87986 5.10001 4.83789 5.14198 4.83789 5.19376C4.83789 5.24553 4.87986 5.28751 4.93164 5.28751Z" fill="#428BC1"/>
<path d="M4.7627 5.58749C4.81447 5.58749 4.85645 5.54552 4.85645 5.49374C4.85645 5.44197 4.81447 5.39999 4.7627 5.39999C4.71092 5.39999 4.66895 5.44197 4.66895 5.49374C4.66895 5.54552 4.71092 5.58749 4.7627 5.58749Z" fill="#428BC1"/>
<path d="M4.66895 5.92499C4.72072 5.92499 4.7627 5.88301 4.7627 5.83124C4.7627 5.77946 4.72072 5.73749 4.66895 5.73749C4.61717 5.73749 4.5752 5.77946 4.5752 5.83124C4.5752 5.88301 4.61717 5.92499 4.66895 5.92499Z" fill="#428BC1"/>
<path d="M4.66895 6.26248C4.72072 6.26248 4.7627 6.22051 4.7627 6.16873C4.7627 6.11695 4.72072 6.07498 4.66895 6.07498C4.61717 6.07498 4.5752 6.11695 4.5752 6.16873C4.5752 6.22051 4.61717 6.26248 4.66895 6.26248Z" fill="#428BC1"/>
<path d="M4.7627 6.60001C4.81447 6.60001 4.85645 6.55803 4.85645 6.50626C4.85645 6.45448 4.81447 6.41251 4.7627 6.41251C4.71092 6.41251 4.66895 6.45448 4.66895 6.50626C4.66895 6.55803 4.71092 6.60001 4.7627 6.60001Z" fill="#428BC1"/>
<path d="M4.93164 6.89999C4.98342 6.89999 5.02539 6.85802 5.02539 6.80624C5.02539 6.75447 4.98342 6.71249 4.93164 6.71249C4.87986 6.71249 4.83789 6.75447 4.83789 6.80624C4.83789 6.85802 4.87986 6.89999 4.93164 6.89999Z" fill="#428BC1"/>
<path d="M5.17529 7.14374C5.22707 7.14374 5.26904 7.10176 5.26904 7.04999C5.26904 6.99821 5.22707 6.95624 5.17529 6.95624C5.12352 6.95624 5.08154 6.99821 5.08154 7.04999C5.08154 7.10176 5.12352 7.14374 5.17529 7.14374Z" fill="#428BC1"/>
<path d="M5.4751 7.3125C5.52687 7.3125 5.56885 7.27053 5.56885 7.21875C5.56885 7.16697 5.52687 7.125 5.4751 7.125C5.42332 7.125 5.38135 7.16697 5.38135 7.21875C5.38135 7.27053 5.42332 7.3125 5.4751 7.3125Z" fill="#428BC1"/>
<path d="M5.79395 7.38748C5.84572 7.38748 5.8877 7.34551 5.8877 7.29373C5.8877 7.24195 5.84572 7.19998 5.79395 7.19998C5.74217 7.19998 5.7002 7.24195 5.7002 7.29373C5.7002 7.34551 5.74217 7.38748 5.79395 7.38748Z" fill="#428BC1"/>
<path d="M6.05664 7.31248C6.05664 7.25623 6.09414 7.21873 6.13164 7.19998C6.18789 7.19998 6.22539 7.23748 6.24414 7.27498C6.24414 7.33123 6.20664 7.36873 6.16914 7.38748C6.09414 7.40623 6.05664 7.36873 6.05664 7.31248Z" fill="#428BC1"/>
<path d="M6.46875 7.3125C6.52053 7.3125 6.5625 7.27053 6.5625 7.21875C6.5625 7.16697 6.52053 7.125 6.46875 7.125C6.41697 7.125 6.375 7.16697 6.375 7.21875C6.375 7.27053 6.41697 7.3125 6.46875 7.3125Z" fill="#428BC1"/>
<path d="M6.76904 7.14374C6.82082 7.14374 6.86279 7.10176 6.86279 7.04999C6.86279 6.99821 6.82082 6.95624 6.76904 6.95624C6.71727 6.95624 6.67529 6.99821 6.67529 7.04999C6.67529 7.10176 6.71727 7.14374 6.76904 7.14374Z" fill="#428BC1"/>
<path d="M7.0127 6.89999C7.06447 6.89999 7.10645 6.85802 7.10645 6.80624C7.10645 6.75447 7.06447 6.71249 7.0127 6.71249C6.96092 6.71249 6.91895 6.75447 6.91895 6.80624C6.91895 6.85802 6.96092 6.89999 7.0127 6.89999Z" fill="#428BC1"/>
<path d="M7.18164 6.60001C7.23342 6.60001 7.27539 6.55803 7.27539 6.50626C7.27539 6.45448 7.23342 6.41251 7.18164 6.41251C7.12986 6.41251 7.08789 6.45448 7.08789 6.50626C7.08789 6.55803 7.12986 6.60001 7.18164 6.60001Z" fill="#428BC1"/>
<path d="M7.27539 6.26248C7.32717 6.26248 7.36914 6.22051 7.36914 6.16873C7.36914 6.11695 7.32717 6.07498 7.27539 6.07498C7.22361 6.07498 7.18164 6.11695 7.18164 6.16873C7.18164 6.22051 7.22361 6.26248 7.27539 6.26248Z" fill="#428BC1"/>
<path d="M7.2751 5.92499C7.21885 5.92499 7.18135 5.88749 7.1626 5.84999C7.1626 5.79374 7.2001 5.75624 7.2376 5.73749C7.29385 5.73749 7.33135 5.77499 7.3501 5.81249C7.36885 5.86874 7.33135 5.90624 7.2751 5.92499Z" fill="#428BC1"/>
<path d="M7.18164 5.58749C7.23342 5.58749 7.27539 5.54552 7.27539 5.49374C7.27539 5.44197 7.23342 5.39999 7.18164 5.39999C7.12986 5.39999 7.08789 5.44197 7.08789 5.49374C7.08789 5.54552 7.12986 5.58749 7.18164 5.58749Z" fill="#428BC1"/>
<path d="M7.0127 5.28751C7.06447 5.28751 7.10645 5.24553 7.10645 5.19376C7.10645 5.14198 7.06447 5.10001 7.0127 5.10001C6.96092 5.10001 6.91895 5.14198 6.91895 5.19376C6.91895 5.24553 6.96092 5.28751 7.0127 5.28751Z" fill="#428BC1"/>
<path d="M6.76904 5.04373C6.82082 5.04373 6.86279 5.00176 6.86279 4.94998C6.86279 4.8982 6.82082 4.85623 6.76904 4.85623C6.71727 4.85623 6.67529 4.8982 6.67529 4.94998C6.67529 5.00176 6.71727 5.04373 6.76904 5.04373Z" fill="#428BC1"/>
<path d="M6.5627 4.81874C6.54395 4.87499 6.4877 4.89374 6.43145 4.87499C6.3752 4.85624 6.35645 4.79999 6.3752 4.74374C6.39395 4.68749 6.4502 4.66874 6.50645 4.68749C6.5627 4.72499 6.58145 4.78124 6.5627 4.81874ZM6.2252 4.70624C6.2252 4.76249 6.16895 4.79999 6.1127 4.78124C6.05645 4.78124 6.01895 4.72499 6.0377 4.66874C6.0377 4.61249 6.09395 4.57499 6.1502 4.59374C6.20645 4.61249 6.24395 4.66874 6.2252 4.70624ZM5.8877 4.68749C5.8877 4.74374 5.8502 4.78124 5.8127 4.79999C5.75645 4.79999 5.71895 4.76249 5.7002 4.72499C5.7002 4.66874 5.7377 4.63124 5.7752 4.61249C5.83145 4.59374 5.8877 4.63124 5.8877 4.68749Z" fill="#428BC1"/>
<path d="M5.96289 6.28125C6.11822 6.28125 6.24414 6.15533 6.24414 6C6.24414 5.84467 6.11822 5.71875 5.96289 5.71875C5.80756 5.71875 5.68164 5.84467 5.68164 6C5.68164 6.15533 5.80756 6.28125 5.96289 6.28125Z" fill="#428BC1"/>
<path d="M5.9625 4.6875L5.925 5.49375L5.9625 6L6.01875 5.49375L5.9625 4.6875ZM5.625 4.725L5.79375 5.53125L5.9625 6L5.8875 5.49375L5.625 4.725Z" fill="#428BC1"/>
<path d="M5.30645 4.85623L5.68145 5.58748L5.9627 5.99998L5.75645 5.53123L5.30645 4.85623ZM5.04395 5.06248L5.5877 5.68123L5.9627 5.99998L5.64395 5.60623L5.04395 5.06248Z" fill="#428BC1"/>
<path d="M4.83789 5.34375L5.51289 5.79375L5.96289 6L5.55039 5.7L4.83789 5.34375Z" fill="#428BC1"/>
<path d="M4.70664 5.66251L5.47539 5.90626L5.96289 6.00001L5.49414 5.83126L4.70664 5.66251ZM4.65039 6.00001L5.47539 6.03751L5.96289 6.00001L5.47539 5.96251L4.65039 6.00001Z" fill="#428BC1"/>
<path d="M4.70654 6.3375L5.49404 6.16875L5.96279 6L5.47529 6.09375L4.70654 6.3375ZM4.83779 6.65625L5.55029 6.3L5.96279 6L5.51279 6.20625L4.83779 6.65625Z" fill="#428BC1"/>
<path d="M5.04395 6.91875L5.64395 6.39375L5.9627 6L5.5877 6.31875L5.04395 6.91875ZM5.30645 7.14375L5.75645 6.45L5.9627 6L5.68145 6.4125L5.30645 7.14375Z" fill="#428BC1"/>
<path d="M5.625 7.275L5.8875 6.50625L5.9625 6L5.79375 6.46875L5.625 7.275ZM5.9625 7.3125L6.01875 6.50625L5.9625 6L5.925 6.50625L5.9625 7.3125ZM6.3 7.275L6.15 6.46875L5.9625 6L6.05625 6.50625L6.3 7.275Z" fill="#428BC1"/>
<path d="M6.61914 7.14375L6.26289 6.4125L5.96289 6L6.18789 6.46875L6.61914 7.14375ZM6.90039 6.91875L6.35664 6.31875L5.96289 6L6.30039 6.39375L6.90039 6.91875Z" fill="#428BC1"/>
<path d="M7.10664 6.65626L6.43164 6.20626L5.96289 6.00001L6.37539 6.30001L7.10664 6.65626ZM7.23789 6.33751L6.46914 6.09376L5.96289 6.00001L6.45039 6.16876L7.23789 6.33751ZM7.27539 6.00001L6.46914 5.94376L5.96289 6.00001L6.46914 6.03751L7.27539 6.00001ZM7.23789 5.66251L6.45039 5.83126L5.96289 6.00001L6.46914 5.90626L7.23789 5.66251Z" fill="#428BC1"/>
<path d="M7.10664 5.34374L6.37539 5.69999L5.96289 5.99999L6.43164 5.79374L7.10664 5.34374ZM6.90039 5.08124L6.30039 5.60624L5.96289 5.99999L6.35664 5.68124L6.90039 5.08124Z" fill="#428BC1"/>
<path d="M6.61914 4.85623L6.18789 5.54998L5.96289 5.99998L6.26289 5.58748L6.61914 4.85623Z" fill="#428BC1"/>
<path d="M6.31914 4.72501L6.05664 5.49376L5.96289 6.00001L6.15039 5.53126L6.31914 4.72501Z" fill="#428BC1"/>
</g>
<defs>
<clipPath id="clip0_652_3453">
<rect width="12" height="12" fill="white"/>
</clipPath>
</defs>
</svg>
