<svg width="1076" height="652" viewBox="0 0 1076 652" fill="none" xmlns="http://www.w3.org/2000/svg">
<g filter="url(#filter0_d_648_8440)">
<path d="M4 8.00001C4 3.58174 7.58172 0 12 0H1064C1068.42 0 1072 3.58172 1072 8V636C1072 640.418 1068.42 644 1064 644H12C7.58172 644 4 640.418 4 636V8.00001Z" fill="white"/>
<path d="M4.5 8.00001C4.5 3.85788 7.85787 0.5 12 0.5H1064C1068.14 0.5 1071.5 3.85786 1071.5 8V636C1071.5 640.142 1068.14 643.5 1064 643.5H12C7.85786 643.5 4.5 640.142 4.5 636V8.00001Z" stroke="#D9D9D9" stroke-opacity="0.5"/>
</g>
<defs>
<filter id="filter0_d_648_8440" x="0" y="0" width="1076" height="652" filterUnits="userSpaceOnUse" color-interpolation-filters="sRGB">
<feFlood flood-opacity="0" result="BackgroundImageFix"/>
<feColorMatrix in="SourceAlpha" type="matrix" values="0 0 0 0 0 0 0 0 0 0 0 0 0 0 0 0 0 0 127 0" result="hardAlpha"/>
<feOffset dy="4"/>
<feGaussianBlur stdDeviation="2"/>
<feComposite in2="hardAlpha" operator="out"/>
<feColorMatrix type="matrix" values="0 0 0 0 1 0 0 0 0 1 0 0 0 0 1 0 0 0 0.25 0"/>
<feBlend mode="normal" in2="BackgroundImageFix" result="effect1_dropShadow_648_8440"/>
<feBlend mode="normal" in="SourceGraphic" in2="effect1_dropShadow_648_8440" result="shape"/>
</filter>
</defs>
</svg>
