<svg width="15" height="15" viewBox="0 0 15 15" fill="none" xmlns="http://www.w3.org/2000/svg">
<path d="M2.375 7.5C2.375 6.25495 2.37582 5.36512 2.45666 4.68116C2.53621 4.00824 2.68722 3.60005 2.94247 3.28902C3.04636 3.16243 3.16243 3.04636 3.28902 2.94247C3.60005 2.68722 4.00824 2.53621 4.68116 2.45666C5.36512 2.37582 6.25495 2.375 7.5 2.375C8.74505 2.375 9.63488 2.37582 10.3188 2.45666C10.9918 2.53621 11.4 2.68722 11.711 2.94247C11.8376 3.04636 11.9536 3.16243 12.0575 3.28902C12.3128 3.60005 12.4638 4.00824 12.5433 4.68116C12.6242 5.36512 12.625 6.25495 12.625 7.5C12.625 8.74505 12.6242 9.63488 12.5433 10.3188C12.4638 10.9918 12.3128 11.4 12.0575 11.711C11.9536 11.8376 11.8376 11.9536 11.711 12.0575C11.4 12.3128 10.9918 12.4638 10.3188 12.5433C9.63488 12.6242 8.74505 12.625 7.5 12.625C6.25495 12.625 5.36512 12.6242 4.68116 12.5433C4.00824 12.4638 3.60005 12.3128 3.28902 12.0575C3.16243 11.9536 3.04636 11.8376 2.94247 11.711C2.68722 11.4 2.53621 10.9918 2.45666 10.3188C2.37582 9.63488 2.375 8.74505 2.375 7.5Z" stroke="white"/>
<path d="M7.5 5L7.5 10" stroke="white" stroke-linejoin="round"/>
<path d="M10 7.5L5 7.5" stroke="white" stroke-linejoin="round"/>
</svg>
