<svg width="15" height="16" viewBox="0 0 15 16" fill="none" xmlns="http://www.w3.org/2000/svg">
<circle cx="7.5" cy="5.54785" r="2.5" fill="#7E869E" fill-opacity="0.25" stroke="white" stroke-width="1.2" stroke-linecap="round"/>
<path fill-rule="evenodd" clip-rule="evenodd" d="M7.95493 9.96211C7.33004 9.92286 6.69858 9.96462 6.08767 10.0874C5.16238 10.2733 4.30442 10.6412 3.60445 11.1662C2.90411 11.6915 2.37773 12.3629 2.10533 13.1254C1.99384 13.4375 2.15644 13.7808 2.46849 13.8923C2.78054 14.0038 3.12389 13.8412 3.23538 13.5291C3.4173 13.0199 3.78356 12.5319 4.32445 12.1262C4.86571 11.7203 5.55384 11.4187 6.3241 11.2639C6.49632 11.2293 6.67066 11.2024 6.84618 11.1833C7.02319 10.6345 7.43086 10.1894 7.95493 9.96211Z" fill="white"/>
<path d="M11.25 9.29785L11.25 14.2979" stroke="white" stroke-width="1.2" stroke-linecap="round"/>
<path d="M13.75 11.7979L8.75 11.7979" stroke="white" stroke-width="1.2" stroke-linecap="round"/>
</svg>
