<svg width="18" height="19" viewBox="0 0 18 19" fill="none" xmlns="http://www.w3.org/2000/svg">
<path d="M6.75 10.2917L11.25 10.2917" stroke="white" stroke-linecap="round"/>
<path d="M6.75 7.125L9.75 7.125" stroke="white" stroke-linecap="round"/>
<path d="M6.75 13.4583L9.75 13.4583" stroke="white" stroke-linecap="round"/>
<path d="M14.25 10.2917V11.375C14.25 13.4817 14.25 14.535 13.7444 15.2917C13.5255 15.6193 13.2443 15.9005 12.9167 16.1194C12.16 16.625 11.1067 16.625 9 16.625V16.625C6.89331 16.625 5.83996 16.625 5.08329 16.1194C4.75572 15.9005 4.47447 15.6193 4.25559 15.2917C3.75 14.535 3.75 13.4817 3.75 11.375V6.875C3.75 5.47718 3.75 4.77826 3.97836 4.22695C4.28284 3.49187 4.86687 2.90784 5.60195 2.60336C6.15326 2.375 6.85218 2.375 8.25 2.375V2.375" stroke="white"/>
<path d="M13.5 2.375L13.5 7.125" stroke="white" stroke-linecap="round"/>
<path d="M15.75 4.75L11.25 4.75" stroke="white" stroke-linecap="round"/>
</svg>
