<svg width="24" height="25" viewBox="0 0 24 25" fill="none" xmlns="http://www.w3.org/2000/svg">
<path fill-rule="evenodd" clip-rule="evenodd" d="M2.87868 4.20302C2 5.0817 2 6.49591 2 9.32434V15.3243C2 18.1528 2 19.567 2.87868 20.4457C3.75736 21.3243 5.17157 21.3243 8 21.3243H16C18.8284 21.3243 20.2426 21.3243 21.1213 20.4457C22 19.567 22 18.1528 22 15.3243V9.32434C22 6.49591 22 5.0817 21.1213 4.20302C20.2426 3.32434 18.8284 3.32434 16 3.32434H8C5.17157 3.32434 3.75736 3.32434 2.87868 4.20302ZM16 8.32434C16.5523 8.32434 17 8.77206 17 9.32434V17.3243C17 17.8766 16.5523 18.3243 16 18.3243C15.4477 18.3243 15 17.8766 15 17.3243V9.32434C15 8.77206 15.4477 8.32434 16 8.32434ZM9 11.3243C9 10.7721 8.55228 10.3243 8 10.3243C7.44772 10.3243 7 10.7721 7 11.3243L7 17.3243C7 17.8766 7.44772 18.3243 8 18.3243C8.55229 18.3243 9 17.8766 9 17.3243L9 11.3243ZM13 13.3243C13 12.7721 12.5523 12.3243 12 12.3243C11.4477 12.3243 11 12.7721 11 13.3243V17.3243C11 17.8766 11.4477 18.3243 12 18.3243C12.5523 18.3243 13 17.8766 13 17.3243V13.3243Z" fill="white"/>
</svg>
