<svg width="23" height="15" viewBox="0 0 23 15" fill="none" xmlns="http://www.w3.org/2000/svg">
<g clip-path="url(#clip0_23_1803)">
<mask id="mask0_23_1803" style="mask-type:alpha" maskUnits="userSpaceOnUse" x="0" y="0" width="23" height="15">
<path d="M0.127991 0H22.3631V15H0.127991V0Z" fill="white"/>
</mask>
<g mask="url(#mask0_23_1803)">
<path fill-rule="evenodd" clip-rule="evenodd" d="M0.127991 0V15H22.3631V0H0.127991Z" fill="#2E42A5"/>
<mask id="mask1_23_1803" style="mask-type:alpha" maskUnits="userSpaceOnUse" x="0" y="0" width="23" height="15">
<path fill-rule="evenodd" clip-rule="evenodd" d="M0.127991 0V15H22.3631V0H0.127991Z" fill="white"/>
</mask>
<g mask="url(#mask1_23_1803)">
<mask id="mask2_23_1803" style="mask-type:alpha" maskUnits="userSpaceOnUse" x="0" y="0" width="23" height="15">
<path d="M0.127991 0H22.3631V15H0.127991V0Z" fill="white"/>
</mask>
<g mask="url(#mask2_23_1803)">
<path d="M-2.34775 13.9281L2.54537 15.79L22.4736 2.02374L25.0549 -0.742505L19.8227 -1.36438L11.6944 4.56749L5.15174 8.56499L-2.34775 13.9281Z" fill="white"/>
<path d="M-1.67862 15.2325L0.815187 16.3125L24.128 -0.99939H20.6281L-1.67792 15.2319L-1.67862 15.2325Z" fill="#F50100"/>
<path d="M24.8388 13.9281L19.9457 15.79L0.0174992 2.02374L-2.56386 -0.742505L2.66834 -1.36438L10.7967 4.56749L17.3393 8.56499L24.8388 13.9281Z" fill="white"/>
<path d="M24.6721 14.8643L22.179 15.9443L12.2524 8.53185L9.309 7.70434L-2.81261 -0.733154H0.688033L12.802 7.50434L16.0198 8.49685L24.6721 14.8643Z" fill="#F50100"/>
<mask id="mask3_23_1803" style="mask-type:alpha" maskUnits="userSpaceOnUse" x="-2" y="-2" width="26" height="19">
<path fill-rule="evenodd" clip-rule="evenodd" d="M13.8707 -1.25H8.62041V5H-1.24225V10H8.62041V16.25H13.8707V10H23.7723V5H13.8707V-1.25Z" fill="white"/>
</mask>
<g mask="url(#mask3_23_1803)">
<path fill-rule="evenodd" clip-rule="evenodd" d="M13.8707 -1.25H8.62041V5H-1.24225V10H8.62041V16.25H13.8707V10H23.7723V5H13.8707V-1.25Z" fill="#F50100"/>
<path d="M8.62041 -1.25V-2.5H7.23072V-1.25H8.62041ZM13.8707 -1.25H15.2604V-2.5H13.8707V-1.25ZM8.62041 5V6.25H10.0101V5H8.62041ZM-1.24225 5V3.75H-2.63194V5H-1.24225ZM-1.24225 10H-2.63194V11.25H-1.24225V10ZM8.62041 10H10.0101V8.75H8.62041V10ZM8.62041 16.25H7.23072V17.5H8.62041V16.25ZM13.8707 16.25V17.5H15.2604V16.25H13.8707ZM13.8707 10V8.75H12.481V10H13.8707ZM23.7723 10V11.25H25.1619V10H23.7723ZM23.7723 5H25.1619V3.75H23.7723V5ZM13.8707 5H12.481V6.25H13.8707V5ZM8.62041 -4.76837e-07H13.8707V-2.5H8.62041V-4.76837e-07ZM10.0101 5V-1.25H7.23072V5H10.0101ZM-1.24225 6.25H8.62041V3.75H-1.24225V6.25ZM0.147446 10V5H-2.63194V10H0.147446ZM8.62041 8.75H-1.24225V11.25H8.62041V8.75ZM10.0101 16.25V10H7.23072V16.25H10.0101ZM13.8707 15H8.62041V17.5H13.8707V15ZM12.481 10V16.25H15.2604V10H12.481ZM23.7723 8.75H13.8707V11.25H23.7723V8.75ZM22.3826 5V10H25.1619V5H22.3826ZM13.8707 6.25H23.7723V3.75H13.8707V6.25ZM12.481 -1.25V5H15.2604V-1.25H12.481Z" fill="white"/>
</g>
</g>
</g>
</g>
</g>
<defs>
<clipPath id="clip0_23_1803">
<rect width="22.2351" height="15" fill="white" transform="translate(0.127991)"/>
</clipPath>
</defs>
</svg>
