<svg width="15" height="15" viewBox="0 0 15 15" fill="none" xmlns="http://www.w3.org/2000/svg">
<path d="M7.5 8.74988L7.14645 9.10343L7.5 9.45698L7.85355 9.10343L7.5 8.74988ZM8 3.12488C8 2.84874 7.77614 2.62488 7.5 2.62488C7.22386 2.62488 7 2.84874 7 3.12488L8 3.12488ZM4.02145 5.97843L7.14645 9.10343L7.85355 8.39632L4.72855 5.27132L4.02145 5.97843ZM7.85355 9.10343L10.9786 5.97843L10.2714 5.27132L7.14645 8.39632L7.85355 9.10343ZM8 8.74988L8 3.12488L7 3.12488L7 8.74988L8 8.74988Z" fill="white"/>
<path d="M3.125 9.99988L3.125 10.6249C3.125 11.3152 3.68464 11.8749 4.375 11.8749L10.625 11.8749C11.3154 11.8749 11.875 11.3152 11.875 10.6249V9.99988" stroke="white"/>
</svg>
