<svg width="25" height="25" viewBox="0 0 25 25" fill="none" xmlns="http://www.w3.org/2000/svg">
<path d="M3.165 14.4445C2.63629 13.4941 2.37193 13.0188 2.37193 12.5C2.37193 11.9811 2.63629 11.5059 3.165 10.5555L4.61554 7.94791L6.1485 5.38791C6.70725 4.45481 6.98663 3.98826 7.43596 3.72884C7.88529 3.46942 8.42902 3.46075 9.51648 3.44341L12.5 3.39582L15.4835 3.44341C16.5709 3.46075 17.1147 3.46942 17.564 3.72884C18.0133 3.98826 18.2927 4.45481 18.8515 5.38791L20.3844 7.94791L21.835 10.5555C22.3637 11.5059 22.628 11.9811 22.628 12.5C22.628 13.0188 22.3637 13.4941 21.835 14.4445L20.3844 17.0521L18.8515 19.6121C18.2927 20.5452 18.0133 21.0117 17.564 21.2711C17.1147 21.5306 16.5709 21.5392 15.4835 21.5566L12.5 21.6042L9.51648 21.5566C8.42902 21.5392 7.88529 21.5306 7.43596 21.2711C6.98663 21.0117 6.70725 20.5452 6.1485 19.6121L4.61554 17.0521L3.165 14.4445Z" stroke="white" stroke-width="2"/>
<circle cx="12.5" cy="12.5" r="3.125" stroke="#48B4E9" stroke-width="2"/>
</svg>
